<svg width="512" height="512" viewBox="0 0 512 512" fill="none" xmlns="http://www.w3.org/2000/svg">
<path d="M440 165C442.886 174.298 443.431 183.119 443.388 192.768C443.392 194.316 443.398 195.865 443.404 197.414C443.418 201.585 443.413 205.757 443.403 209.928C443.395 214.315 443.402 218.701 443.407 223.088C443.413 230.451 443.405 237.815 443.391 245.178C443.375 253.665 443.38 262.151 443.397 270.638C443.41 277.953 443.412 285.268 443.404 292.583C443.4 296.939 443.399 301.295 443.409 305.652C443.418 309.749 443.411 313.847 443.394 317.944C443.39 319.439 443.391 320.934 443.398 322.428C443.469 339.922 439.689 354.513 427.539 367.551C426.701 368.359 425.863 369.167 425 370C424.462 370.528 423.924 371.055 423.37 371.599C417.669 376.919 411.281 380.458 404.438 384.125C403.234 384.78 402.031 385.436 400.829 386.094C398.993 387.097 397.158 388.099 395.32 389.098C389.634 392.188 384 395.365 378.375 398.562C370.43 403.066 362.471 407.543 354.5 412C345.549 417.006 336.613 422.038 327.688 427.092C319.401 431.782 311.092 436.433 302.773 441.068C301.317 441.881 301.317 441.881 299.832 442.711C298.872 443.246 297.913 443.78 296.924 444.331C294.914 445.478 292.922 446.658 290.947 447.864C289.432 448.786 289.432 448.786 287.887 449.727C286.55 450.559 286.55 450.559 285.186 451.409C282.36 452.82 279.818 453.719 276.801 454.599C275.901 454.864 275.002 455.128 274.075 455.4C273.391 455.598 272.706 455.796 272 456C271.344 431.262 270.851 406.525 270.549 381.78C270.405 370.288 270.209 358.802 269.888 347.314C269.608 337.294 269.428 327.278 269.366 317.254C269.329 311.949 269.245 306.656 269.04 301.355C267.805 268.185 267.805 268.185 274.741 260.582C281.068 254.768 288.776 251.361 296.711 248.312C301.044 246.583 304.843 244.3 308.75 241.781C309.968 241.054 311.189 240.331 312.414 239.615C323.656 232.985 334.857 226.294 346 219.5C356.628 213.02 367.313 206.641 378.026 200.301C387.701 194.574 397.335 188.785 406.938 182.938C423.933 172.599 423.933 172.599 430.062 168.938C430.741 168.526 431.42 168.114 432.119 167.689C436.653 165 436.653 165 440 165Z" fill="#3583FF"/>
<path d="M72 165C76.4175 165.767 79.7056 167.343 83.5039 169.656C84.1305 170.03 84.7572 170.404 85.4028 170.789C87.4603 172.019 89.5114 173.259 91.5625 174.5C93.0081 175.367 94.4541 176.234 95.9004 177.1C106.1 183.215 116.262 189.393 126.416 195.582C135.238 200.955 144.111 206.239 153 211.5C164.174 218.114 175.298 224.803 186.385 231.564C196.895 237.966 207.479 244.244 218.08 250.494C218.726 250.876 219.372 251.257 220.037 251.651C221.777 252.679 223.517 253.705 225.258 254.731C225.828 255.095 226.398 255.458 226.985 255.833C229.065 257.1 229.065 257.1 231.728 258.105C235.16 259.729 237.417 261.196 240 264C241.651 270.117 241.393 276.124 241.249 282.42C241.246 284.312 241.247 286.205 241.254 288.098C241.257 293.226 241.192 298.352 241.115 303.48C241.047 308.843 241.04 314.205 241.027 319.568C240.993 329.718 240.903 339.868 240.792 350.018C240.669 361.575 240.609 373.132 240.554 384.69C240.439 408.461 240.245 432.23 240 456C238.109 455.396 236.22 454.785 234.333 454.171C233.281 453.832 232.229 453.493 231.145 453.143C226.209 451.349 221.82 448.792 217.313 446.125C215.299 444.96 213.284 443.796 211.27 442.633C210.239 442.034 209.209 441.435 208.147 440.817C202.962 437.823 197.73 434.915 192.5 432C183.54 426.991 174.597 421.952 165.664 416.895C158.621 412.91 151.563 408.95 144.5 405C133.518 398.855 122.541 392.702 111.607 386.471C109.152 385.086 106.683 383.733 104.207 382.387C86.6633 372.711 75.9196 360.489 70 341C69.0634 337.094 68.8699 333.456 68.8596 329.443C68.8566 328.798 68.8536 328.153 68.8506 327.488C68.8419 325.335 68.8404 323.181 68.8389 321.027C68.8342 319.479 68.8292 317.932 68.8238 316.384C68.8107 312.183 68.8043 307.982 68.7998 303.781C68.7969 301.153 68.7928 298.524 68.7883 295.896C68.7746 287.66 68.765 279.425 68.7611 271.19C68.7566 261.705 68.7391 252.22 68.7101 242.736C68.6884 235.391 68.6784 228.047 68.6771 220.702C68.676 216.322 68.6702 211.942 68.6522 207.562C68.6357 203.436 68.6337 199.31 68.6424 195.184C68.6431 193.678 68.6389 192.172 68.6289 190.666C68.5733 181.719 69.3239 173.592 72 165Z" fill="#4851FF"/>
<path d="M308.324 73.7344C314.271 77.1667 320.256 80.5261 326.25 83.875C327.295 84.459 328.339 85.043 329.415 85.6448C331.544 86.8346 333.673 88.0241 335.802 89.2134C349.988 97.1383 364.169 105.072 378.303 113.09C383.426 115.993 388.561 118.869 393.715 121.715C394.836 122.336 395.958 122.957 397.113 123.598C399.265 124.789 401.42 125.975 403.578 127.156C409.404 130.386 414.808 133.82 420 138C418.68 141.961 417.135 142.365 413.543 144.414C412.977 144.741 412.412 145.067 411.829 145.403C410.6 146.112 409.368 146.817 408.135 147.518C404.798 149.415 401.478 151.343 398.156 153.266C397.472 153.661 396.788 154.056 396.083 154.463C389.389 158.334 382.784 162.341 376.188 166.375C366.169 172.493 356.102 178.522 346 184.5C335.963 190.44 325.958 196.428 316 202.5C304.419 209.561 292.774 216.508 281.096 223.406C280.461 223.782 279.827 224.157 279.173 224.544C277.927 225.281 276.679 226.015 275.431 226.747C272.35 228.562 269.324 230.426 266.347 232.406C265.762 232.788 265.176 233.171 264.573 233.565C262.973 234.616 261.387 235.687 259.802 236.76C257 238 257 238 254.499 237.415C253.262 236.714 253.262 236.714 252 236C251.081 235.499 250.162 234.998 249.215 234.482C248.204 233.889 247.194 233.295 246.152 232.684C245.312 232.192 245.312 232.192 244.456 231.69C242.614 230.61 240.776 229.524 238.938 228.438C237.634 227.67 236.33 226.903 235.027 226.136C225.21 220.35 215.463 214.454 205.736 208.519C196.865 203.11 187.942 197.791 179 192.5C167.825 185.886 156.702 179.197 145.615 172.436C135.105 166.034 124.521 159.756 113.92 153.506C106.524 149.138 99.2097 144.673 92 140C93.9261 135.575 96.8455 133.974 100.938 131.687C101.674 131.265 102.411 130.843 103.169 130.407C105.771 128.923 108.384 127.46 111 126C112.015 125.433 113.03 124.866 114.076 124.281C119.178 121.434 124.286 118.597 129.399 115.769C136.161 112.028 142.901 108.248 149.625 104.437C157.57 99.9349 165.529 95.4573 173.5 91C181.592 86.4733 189.677 81.9348 197.75 77.375C198.688 76.8466 199.626 76.3181 200.593 75.7737C205.314 73.1089 210.014 70.4136 214.684 67.6602C232.484 57.2068 232.484 57.2068 242 55C242.752 54.8131 243.503 54.6262 244.277 54.4336C268.951 50.5042 287.773 61.8613 308.324 73.7344Z" fill="#2F94FF"/>
</svg>
