<svg width="109" height="26" viewBox="0 0 109 26" fill="none" xmlns="http://www.w3.org/2000/svg">
<path d="M23.7855 7C23.9669 7.60711 24.0012 8.18306 23.9985 8.813C23.9987 8.91413 23.999 9.01525 23.9995 9.11637C24.0003 9.38874 24 9.66109 23.9994 9.93346C23.9989 10.2199 23.9993 10.5063 23.9996 10.7927C24 11.2735 23.9995 11.7542 23.9986 12.235C23.9976 12.7891 23.9979 13.3432 23.999 13.8973C23.9998 14.3749 24 14.8525 23.9995 15.3301C23.9992 15.6146 23.9991 15.899 23.9998 16.1835C24.0003 16.451 23.9999 16.7185 23.9988 16.9861C23.9986 17.0836 23.9986 17.1812 23.9991 17.2788C24.0035 18.4211 23.7659 19.3737 23.0022 20.225C22.9495 20.2777 22.8969 20.3305 22.8426 20.3849C22.8088 20.4193 22.775 20.4538 22.7402 20.4893C22.3818 20.8366 21.9803 21.0677 21.5501 21.3071C21.4744 21.3499 21.3988 21.3927 21.3232 21.4357C21.2079 21.5012 21.0925 21.5666 20.977 21.6318C20.6196 21.8336 20.2654 22.041 19.9118 22.2498C19.4124 22.5438 18.9121 22.8361 18.4111 23.1271C17.8484 23.454 17.2867 23.7826 16.7258 24.1126C16.2048 24.4188 15.6825 24.7225 15.1597 25.0251C15.0681 25.0782 15.0681 25.0782 14.9748 25.1323C14.9145 25.1672 14.8541 25.2021 14.792 25.2381C14.6656 25.313 14.5404 25.39 14.4163 25.4688C14.321 25.529 14.321 25.529 14.2239 25.5904C14.1399 25.6448 14.1399 25.6448 14.0542 25.7002C13.8765 25.7924 13.7167 25.8511 13.5271 25.9086C13.4705 25.9258 13.414 25.943 13.3558 25.9608C13.3127 25.9737 13.2697 25.9867 13.2253 26C13.1841 24.3848 13.1531 22.7697 13.1341 21.154C13.125 20.4037 13.1127 19.6537 13.0925 18.9036C13.0749 18.2494 13.0636 17.5954 13.0597 16.941C13.0574 16.5946 13.0521 16.249 13.0392 15.9029C12.9616 13.7372 12.9616 13.7372 13.3976 13.2408C13.7953 12.8611 14.2798 12.6387 14.7786 12.4396C15.0509 12.3268 15.2898 12.1776 15.5353 12.0132C15.6119 11.9657 15.6887 11.9185 15.7657 11.8718C16.4723 11.4389 17.1764 11.002 17.8768 10.5584C18.5449 10.1353 19.2165 9.71882 19.8899 9.30488C20.498 8.93094 21.1036 8.55299 21.7072 8.17118C22.7756 7.49615 22.7756 7.49615 23.1608 7.25709C23.2035 7.23019 23.2461 7.2033 23.2901 7.17558C23.5751 7 23.5751 7 23.7855 7Z" fill="#3583FF"/>
<path d="M0.214861 7C0.496181 7.05007 0.705578 7.15296 0.947467 7.30402C0.987373 7.32842 1.02728 7.35283 1.0684 7.37798C1.19943 7.45829 1.33004 7.53927 1.46066 7.62027C1.55273 7.67689 1.64481 7.73347 1.73691 7.79001C2.38643 8.1893 3.03359 8.59266 3.68026 8.99676C4.24207 9.34757 4.80712 9.69257 5.3732 10.0361C6.08483 10.4679 6.79323 10.9047 7.49923 11.3461C8.16859 11.7641 8.84258 12.174 9.51771 12.5821C9.55883 12.607 9.59996 12.6319 9.64233 12.6576C9.75311 12.7247 9.86397 12.7917 9.97483 12.8587C10.0111 12.8825 10.0474 12.9062 10.0848 12.9307C10.2173 13.0134 10.2173 13.0134 10.3868 13.079C10.6054 13.1851 10.7492 13.2808 10.9136 13.4639C11.0188 13.8633 11.0023 14.2555 10.9932 14.6666C10.993 14.7902 10.9931 14.9137 10.9935 15.0373C10.9937 15.3722 10.9896 15.7068 10.9847 16.0417C10.9803 16.3918 10.9799 16.7419 10.979 17.092C10.9769 17.7548 10.9711 18.4175 10.9641 19.0802C10.9563 19.8348 10.9524 20.5894 10.9489 21.344C10.9416 22.896 10.9293 24.448 10.9136 26C10.7932 25.9606 10.6729 25.9207 10.5527 25.8806C10.4857 25.8584 10.4187 25.8363 10.3497 25.8134C10.0354 25.6963 9.75587 25.5294 9.46883 25.3552C9.34058 25.2792 9.2123 25.2032 9.08399 25.1272C9.01837 25.0881 8.95275 25.049 8.88514 25.0087C8.55495 24.8132 8.22174 24.6233 7.88869 24.433C7.31808 24.1059 6.74858 23.7769 6.17969 23.4467C5.73113 23.1865 5.28169 22.928 4.83189 22.6701C4.13252 22.2689 3.43347 21.8671 2.73716 21.4603C2.58085 21.3699 2.4236 21.2815 2.26591 21.1936C1.14867 20.5619 0.464474 19.7639 0.0874949 18.4914C0.0278516 18.2364 0.0155276 17.9988 0.0148679 17.7368C0.0146787 17.6947 0.0144895 17.6526 0.0142946 17.6092C0.013744 17.4686 0.0136455 17.328 0.0135503 17.1873C0.0132553 17.0863 0.0129353 16.9852 0.0125922 16.8842C0.0117579 16.6099 0.0113462 16.3356 0.0110631 16.0613C0.0108761 15.8897 0.0106147 15.7181 0.0103305 15.5465C0.00945984 15.0088 0.00884418 14.4711 0.00859815 13.9333C0.00831321 13.3141 0.00719742 12.6948 0.00535027 12.0755C0.00396992 11.596 0.00333108 11.1164 0.00324615 10.6369C0.00317965 10.3509 0.00280869 10.0649 0.00166555 9.77897C0.000609602 9.50956 0.000481819 9.24016 0.00103757 8.97075C0.0010863 8.87243 0.000814534 8.7741 0.000180509 8.67578C-0.0033622 8.09163 0.0444385 7.56099 0.214861 7Z" fill="#4851FF"/>
<path d="M15.85 1.30933C16.2307 1.53298 16.614 1.7519 16.9977 1.97012C17.0646 2.00818 17.1315 2.04624 17.2004 2.08545C17.3367 2.16298 17.473 2.24049 17.6093 2.31799C18.5175 2.8344 19.4255 3.35141 20.3304 3.87389C20.6583 4.06303 20.9871 4.25044 21.3171 4.43589C21.3889 4.47638 21.4607 4.51686 21.5347 4.55858C21.6725 4.6362 21.8104 4.71352 21.9486 4.79047C22.3216 5.00093 22.6676 5.22469 23 5.49708C22.9155 5.7552 22.8166 5.78153 22.5866 5.91504C22.5504 5.93632 22.5142 5.9576 22.4769 5.97952C22.3982 6.02569 22.3193 6.07161 22.2403 6.11729C22.0267 6.24093 21.8142 6.36652 21.6015 6.49184C21.5577 6.51758 21.5139 6.54332 21.4687 6.56984C21.0402 6.82211 20.6173 7.0832 20.1949 7.34609C19.5535 7.74473 18.909 8.13763 18.2622 8.52717C17.6196 8.91426 16.979 9.30445 16.3415 9.70011C15.6 10.1602 14.8544 10.6129 14.1067 11.0624C14.0661 11.0869 14.0255 11.1114 13.9836 11.1366C13.9038 11.1846 13.824 11.2324 13.744 11.2801C13.5468 11.3984 13.3531 11.5199 13.1625 11.6489C13.125 11.6738 13.0875 11.6987 13.0489 11.7244C12.9465 11.7929 12.8449 11.8627 12.7435 11.9326C12.564 12.0134 12.564 12.0134 12.4039 11.9753C12.3247 11.9296 12.3247 11.9296 12.2439 11.8831C12.1851 11.8504 12.1262 11.8178 12.0656 11.7842C12.0009 11.7455 11.9362 11.7068 11.8695 11.667C11.8157 11.6349 11.8157 11.6349 11.7609 11.6022C11.643 11.5318 11.5253 11.4611 11.4076 11.3903C11.3241 11.3403 11.2407 11.2903 11.1572 11.2403C10.5287 10.8633 9.90466 10.4791 9.28188 10.0923C8.71389 9.73988 8.14263 9.39329 7.57012 9.04848C6.85468 8.61752 6.14248 8.18159 5.4327 7.74104C4.75976 7.32386 4.08215 6.9148 3.40341 6.50749C2.92986 6.22287 2.4616 5.93191 2 5.62741C2.12332 5.33904 2.31023 5.23475 2.57222 5.08574C2.61937 5.05821 2.66653 5.03069 2.71512 5.00233C2.8817 4.90561 3.04899 4.81024 3.21646 4.71512C3.28145 4.67816 3.34643 4.6412 3.41338 4.60312C3.74006 4.41761 4.06708 4.23274 4.39442 4.04845C4.82741 3.80466 5.25892 3.55838 5.68941 3.31004C6.1981 3.01663 6.70766 2.72486 7.21799 2.43441C7.73606 2.13944 8.2537 1.84369 8.77058 1.54656C8.83065 1.51213 8.89071 1.47769 8.9526 1.44221C9.25487 1.26857 9.55574 1.09294 9.85474 0.91351C10.9944 0.232336 10.9944 0.232336 11.6037 0.0885331C11.6518 0.0763532 11.6999 0.0641733 11.7495 0.0516243C13.3292 -0.204425 14.5342 0.535636 15.85 1.30933Z" fill="#2F94FF"/>
<path d="M37.23 19.24C35.9167 19.24 34.8867 18.7667 34.14 17.82C33.3933 16.8733 33.02 15.56 33.02 13.88C33.02 12.8133 33.1967 11.88 33.55 11.08C33.9033 10.28 34.3967 9.65667 35.03 9.21C35.67 8.76333 36.4133 8.54 37.26 8.54C38.1667 8.54 38.91 8.87333 39.49 9.54V5.69L41.98 4.56V19H39.49V18.16C38.9967 18.88 38.2433 19.24 37.23 19.24ZM37.64 16.85C38.0667 16.85 38.43 16.7767 38.73 16.63C39.03 16.4767 39.2833 16.25 39.49 15.95V11.82C39.2833 11.54 39.0133 11.32 38.68 11.16C38.3533 11 38.0067 10.92 37.64 10.92C36.9667 10.92 36.4467 11.1767 36.08 11.69C35.7133 12.1967 35.53 12.9267 35.53 13.88C35.53 14.5067 35.6133 15.0433 35.78 15.49C35.9467 15.93 36.1867 16.2667 36.5 16.5C36.8133 16.7333 37.1933 16.85 37.64 16.85ZM44.143 19L49.473 5H51.933L57.283 19H54.493L53.383 16.04H48.033L46.943 19H44.143ZM48.873 13.67H52.523L51.123 9.92C51.0763 9.80667 51.0263 9.68 50.973 9.54C50.9196 9.4 50.8696 9.26 50.823 9.12C50.7763 8.97333 50.7363 8.84667 50.703 8.74C50.6696 8.84667 50.6296 8.97333 50.583 9.12C50.5363 9.26 50.4863 9.4 50.433 9.54C50.3796 9.68 50.3296 9.80667 50.283 9.92L48.873 13.67ZM59.4389 23.06V8.78H61.9389V9.53C62.4989 8.87 63.2489 8.54 64.1889 8.54C65.0622 8.54 65.8156 8.75667 66.4489 9.19C67.0822 9.61667 67.5689 10.23 67.9089 11.03C68.2489 11.83 68.4189 12.7833 68.4189 13.89C68.4189 14.9633 68.2422 15.9033 67.8889 16.71C67.5356 17.51 67.0389 18.1333 66.3989 18.58C65.7589 19.02 65.0122 19.24 64.1589 19.24C63.6922 19.24 63.2722 19.1567 62.8989 18.99C62.5256 18.8167 62.2056 18.5633 61.9389 18.23V21.93L59.4389 23.06ZM63.7889 16.85C64.4689 16.85 64.9922 16.5933 65.3589 16.08C65.7256 15.56 65.9089 14.83 65.9089 13.89C65.9089 12.95 65.7222 12.22 65.3489 11.7C64.9756 11.18 64.4556 10.92 63.7889 10.92C63.3822 10.92 63.0256 10.9933 62.7189 11.14C62.4189 11.2867 62.1589 11.51 61.9389 11.81V15.94C62.1189 16.2267 62.3722 16.45 62.6989 16.61C63.0322 16.77 63.3956 16.85 63.7889 16.85ZM70.8061 23.06V8.78H73.3061V9.53C73.8661 8.87 74.6161 8.54 75.5561 8.54C76.4294 8.54 77.1828 8.75667 77.8161 9.19C78.4494 9.61667 78.9361 10.23 79.2761 11.03C79.6161 11.83 79.7861 12.7833 79.7861 13.89C79.7861 14.9633 79.6094 15.9033 79.2561 16.71C78.9028 17.51 78.4061 18.1333 77.7661 18.58C77.1261 19.02 76.3794 19.24 75.5261 19.24C75.0594 19.24 74.6394 19.1567 74.2661 18.99C73.8928 18.8167 73.5728 18.5633 73.3061 18.23V21.93L70.8061 23.06ZM75.1561 16.85C75.8361 16.85 76.3594 16.5933 76.7261 16.08C77.0928 15.56 77.2761 14.83 77.2761 13.89C77.2761 12.95 77.0894 12.22 76.7161 11.7C76.3428 11.18 75.8228 10.92 75.1561 10.92C74.7494 10.92 74.3928 10.9933 74.0861 11.14C73.7861 11.2867 73.5261 11.51 73.3061 11.81V15.94C73.4861 16.2267 73.7394 16.45 74.0661 16.61C74.3994 16.77 74.7628 16.85 75.1561 16.85ZM80.5686 21.6L88.4286 4.76H90.9886L83.1286 21.6H80.5686ZM96.3273 19.24C95.1873 19.24 94.304 18.8867 93.6773 18.18C93.0507 17.4667 92.7373 16.46 92.7373 15.16V8.78H95.2373V14.38C95.2373 15.24 95.384 15.8667 95.6773 16.26C95.9707 16.6533 96.434 16.85 97.0673 16.85C97.7473 16.85 98.2473 16.6533 98.5673 16.26C98.894 15.86 99.0573 15.2467 99.0573 14.42V8.78H101.547V19H99.0573V18.04C98.744 18.44 98.3573 18.74 97.8973 18.94C97.444 19.14 96.9207 19.24 96.3273 19.24ZM104.693 19V8.78H107.193V19H104.693ZM105.943 7.5C105.543 7.5 105.197 7.35667 104.903 7.07C104.617 6.77667 104.473 6.43 104.473 6.03C104.473 5.63 104.617 5.29 104.903 5.01C105.19 4.72333 105.537 4.58 105.943 4.58C106.363 4.58 106.713 4.72 106.993 5C107.273 5.28 107.413 5.62333 107.413 6.03C107.413 6.43667 107.27 6.78333 106.983 7.07C106.703 7.35667 106.357 7.5 105.943 7.5Z" fill="black"/>
</svg>
