<svg width="275" height="54" viewBox="0 0 275 54" fill="none" xmlns="http://www.w3.org/2000/svg">
<rect x="17" width="49" height="14" fill="black"/>
<rect y="14" width="17" height="13" fill="black"/>
<rect x="66" y="14" width="17" height="13" fill="black"/>
<rect x="83" y="54" width="49" height="14" transform="rotate(180 83 54)" fill="black"/>
<rect x="100" y="40" width="17" height="13" transform="rotate(180 100 40)" fill="black"/>
<rect x="34" y="40" width="17" height="13" transform="rotate(180 34 40)" fill="black"/>
<path d="M143.4 23.96L142.88 24.08V12.2H147.4V41H143.32L143 38.52C142.307 39.2933 141.427 39.9467 140.36 40.48C139.293 41.0133 138.027 41.28 136.56 41.28C134.773 41.28 133.2 40.8533 131.84 40C130.507 39.1467 129.467 37.9467 128.72 36.4C127.973 34.8533 127.6 33.0533 127.6 31C127.6 28.9467 127.973 27.1467 128.72 25.6C129.467 24.0533 130.507 22.8533 131.84 22C133.2 21.1467 134.773 20.72 136.56 20.72C138.133 20.72 139.507 21.04 140.68 21.68C141.853 22.2933 142.76 23.0533 143.4 23.96ZM132.44 31C132.44 32.84 132.92 34.3333 133.88 35.48C134.84 36.6267 136.093 37.2 137.64 37.2C138.573 37.2 139.427 36.96 140.2 36.48C141 36 141.64 35.3067 142.12 34.4C142.627 33.4667 142.88 32.3333 142.88 31C142.88 29.6667 142.627 28.5467 142.12 27.64C141.64 26.7067 141 26 140.2 25.52C139.427 25.04 138.573 24.8 137.64 24.8C136.093 24.8 134.84 25.3733 133.88 26.52C132.92 27.6667 132.44 29.16 132.44 31ZM165.063 16.96H163.623L155.223 41H150.343L160.263 13H168.343L178.303 41H173.423L165.063 16.96ZM155.783 30.24H172.103V34.16H155.783V30.24ZM185.258 38.04L185.778 37.92V49H181.258V21H185.338L185.658 23.48C186.325 22.7067 187.191 22.0533 188.258 21.52C189.325 20.9867 190.618 20.72 192.138 20.72C193.871 20.72 195.405 21.1467 196.738 22C198.098 22.8533 199.151 24.0533 199.898 25.6C200.671 27.12 201.058 28.92 201.058 31C201.058 33.0533 200.671 34.8533 199.898 36.4C199.151 37.9467 198.111 39.1467 196.778 40C195.445 40.8533 193.898 41.28 192.138 41.28C190.538 41.28 189.151 40.9733 187.978 40.36C186.805 39.72 185.898 38.9467 185.258 38.04ZM196.218 31C196.218 29.16 195.725 27.6667 194.738 26.52C193.778 25.3733 192.538 24.8 191.018 24.8C190.058 24.8 189.178 25.04 188.378 25.52C187.605 26 186.978 26.6933 186.498 27.6C186.018 28.5067 185.778 29.64 185.778 31C185.778 32.3333 186.018 33.4667 186.498 34.4C186.978 35.3067 187.605 36 188.378 36.48C189.178 36.96 190.058 37.2 191.018 37.2C192.538 37.2 193.778 36.6267 194.738 35.48C195.725 34.3333 196.218 32.84 196.218 31ZM209.282 38.04L209.802 37.92V49H205.282V21H209.362L209.682 23.48C210.348 22.7067 211.215 22.0533 212.282 21.52C213.348 20.9867 214.642 20.72 216.162 20.72C217.895 20.72 219.428 21.1467 220.762 22C222.122 22.8533 223.175 24.0533 223.922 25.6C224.695 27.12 225.082 28.92 225.082 31C225.082 33.0533 224.695 34.8533 223.922 36.4C223.175 37.9467 222.135 39.1467 220.802 40C219.468 40.8533 217.922 41.28 216.162 41.28C214.562 41.28 213.175 40.9733 212.002 40.36C210.828 39.72 209.922 38.9467 209.282 38.04ZM220.242 31C220.242 29.16 219.748 27.6667 218.762 26.52C217.802 25.3733 216.562 24.8 215.042 24.8C214.082 24.8 213.202 25.04 212.402 25.52C211.628 26 211.002 26.6933 210.522 27.6C210.042 28.5067 209.802 29.64 209.802 31C209.802 32.3333 210.042 33.4667 210.522 34.4C211.002 35.3067 211.628 36 212.402 36.48C213.202 36.96 214.082 37.2 215.042 37.2C216.562 37.2 217.802 36.6267 218.762 35.48C219.748 34.3333 220.242 32.84 220.242 31ZM236.225 9H240.905L231.265 45H226.625L236.225 9ZM260.722 41H256.562L256.282 39C255.615 39.72 254.815 40.28 253.882 40.68C252.949 41.08 251.962 41.28 250.922 41.28C249.349 41.28 247.989 40.96 246.842 40.32C245.722 39.6533 244.855 38.6933 244.242 37.44C243.629 36.16 243.322 34.5867 243.322 32.72V21H247.842V32.12C247.842 33.7733 248.175 35.04 248.842 35.92C249.509 36.7733 250.535 37.2 251.922 37.2C253.255 37.2 254.295 36.7733 255.042 35.92C255.815 35.04 256.202 33.7467 256.202 32.04V21H260.722V41ZM266.625 21H271.145V41H266.625V21ZM268.905 17.96C268.078 17.96 267.385 17.68 266.825 17.12C266.265 16.56 265.985 15.8933 265.985 15.12C265.985 14.2933 266.265 13.6 266.825 13.04C267.385 12.48 268.078 12.2 268.905 12.2C269.705 12.2 270.385 12.48 270.945 13.04C271.505 13.6 271.785 14.2933 271.785 15.12C271.785 15.8933 271.505 16.56 270.945 17.12C270.385 17.68 269.705 17.96 268.905 17.96Z" fill="black"/>
</svg>
